<?xml version="1.0" encoding="UTF-8" standalone="no"?>
<!DOCTYPE svg PUBLIC "-//W3C//DTD SVG 1.1//EN" "http://www.w3.org/Graphics/SVG/1.1/DTD/svg11.dtd">
<svg version="1.1" xmlns="http://www.w3.org/2000/svg" xmlns:xlink="http://www.w3.org/1999/xlink" preserveAspectRatio="xMidYMid meet" viewBox="-848.1084913576102 -175.2119689111762 3412.9300000000003 3000" width="3412.93" height="3000"><defs><path d="M2410.31 1236.04C2410.31 2014.93 1730.77 2647.29 893.78 2647.29C56.79 2647.29 -622.75 2014.93 -622.75 1236.04C-622.75 457.15 56.79 -175.21 893.78 -175.21C1730.77 -175.21 2410.31 457.15 2410.31 1236.04Z" id="a1EtNsCAdY"></path><path d="M496.22 356.63C512.77 356.63 526.19 370.05 526.19 386.6C526.19 392.81 526.19 381.47 526.19 387.68C526.19 404.24 512.77 417.66 496.22 417.66C370.33 417.66 22.64 417.66 -103.25 417.66C-119.8 417.66 -133.22 404.24 -133.22 387.68C-133.22 381.47 -133.22 392.81 -133.22 386.6C-133.22 370.05 -119.8 356.63 -103.25 356.63C22.64 356.63 370.33 356.63 496.22 356.63Z" id="f7aEAFpF"></path><path d="M1011.55 356.63C1022.84 356.63 1031.99 365.78 1031.99 377.06C1031.99 385.18 1031.99 389.1 1031.99 397.22C1031.99 408.51 1022.84 417.66 1011.55 417.66C925.72 417.66 688.66 417.66 602.83 417.66C591.54 417.66 582.39 408.51 582.39 397.22C582.39 389.1 582.39 385.18 582.39 377.06C582.39 365.78 591.54 356.63 602.83 356.63C688.66 356.63 925.72 356.63 1011.55 356.63Z" id="a1f6wZnKYF"></path><path d="M1911.92 356.63C1928.77 356.63 1942.43 370.29 1942.43 387.14C1942.43 393.24 1942.43 381.04 1942.43 387.14C1942.43 403.99 1928.77 417.66 1911.92 417.66C1745.67 417.66 1277.45 417.66 1111.21 417.66C1094.36 417.66 1080.7 403.99 1080.7 387.14C1080.7 381.04 1080.7 393.24 1080.7 387.14C1080.7 370.29 1094.36 356.63 1111.21 356.63C1277.45 356.63 1745.67 356.63 1911.92 356.63Z" id="b4gUSdimuD"></path><path d="M701.74 490.13C718.59 490.13 732.26 503.79 732.26 520.64C732.26 526.74 732.26 514.54 732.26 520.64C732.26 537.49 718.59 551.15 701.74 551.15C535.5 551.15 67.28 551.15 -98.96 551.15C-115.82 551.15 -129.48 537.49 -129.48 520.64C-129.48 514.54 -129.48 526.74 -129.48 520.64C-129.48 503.79 -115.82 490.13 -98.96 490.13C67.28 490.13 535.5 490.13 701.74 490.13Z" id="e2QlLaaBzh"></path><path d="M1202.63 490.13C1213.92 490.13 1223.07 499.27 1223.07 510.56C1223.07 518.68 1223.07 522.6 1223.07 530.72C1223.07 542 1213.92 551.15 1202.63 551.15C1116.8 551.15 879.74 551.15 793.91 551.15C782.62 551.15 773.47 542 773.47 530.72C773.47 522.6 773.47 518.68 773.47 510.56C773.47 499.27 782.62 490.13 793.91 490.13C879.74 490.13 1116.8 490.13 1202.63 490.13Z" id="a6khcWcu1J"></path><path d="M1689.7 490.13C1700.99 490.13 1710.14 499.27 1710.14 510.56C1710.14 518.68 1710.14 522.6 1710.14 530.72C1710.14 542 1700.99 551.15 1689.7 551.15C1603.87 551.15 1366.81 551.15 1280.97 551.15C1269.69 551.15 1260.54 542 1260.54 530.72C1260.54 522.6 1260.54 518.68 1260.54 510.56C1260.54 499.27 1269.69 490.13 1280.97 490.13C1366.81 490.13 1603.87 490.13 1689.7 490.13Z" id="d1JdSrYFf"></path><path d="M1926.08 490.13C1930.97 490.13 1934.94 494.09 1934.94 498.98C1934.94 509.42 1934.94 531.86 1934.94 542.3C1934.94 547.19 1930.97 551.15 1926.08 551.15C1888.89 551.15 1786.16 551.15 1748.97 551.15C1744.07 551.15 1740.11 547.19 1740.11 542.3C1740.11 531.86 1740.11 509.42 1740.11 498.98C1740.11 494.09 1744.07 490.13 1748.97 490.13C1786.16 490.13 1888.89 490.13 1926.08 490.13Z" id="dxbTbM5o5"></path><path d="M570.61 612.18C587.46 612.18 601.12 625.84 601.12 642.69C601.12 648.8 601.12 636.59 601.12 642.69C601.12 659.55 587.46 673.21 570.61 673.21C430.59 673.21 41.05 673.21 -98.96 673.21C-115.82 673.21 -129.48 659.55 -129.48 642.69C-129.48 636.59 -129.48 648.8 -129.48 642.69C-129.48 625.84 -115.82 612.18 -98.96 612.18C41.05 612.18 430.59 612.18 570.61 612.18Z" id="b1w0BP5goR"></path><path d="M1071.5 612.18C1082.79 612.18 1091.94 621.33 1091.94 632.62C1091.94 640.73 1091.94 644.65 1091.94 652.77C1091.94 664.06 1082.79 673.21 1071.5 673.21C985.67 673.21 748.61 673.21 662.77 673.21C651.49 673.21 642.34 664.06 642.34 652.77C642.34 644.65 642.34 640.73 642.34 632.62C642.34 621.33 651.49 612.18 662.77 612.18C748.61 612.18 985.67 612.18 1071.5 612.18Z" id="c3h6TN90Ag"></path><path d="M1908.17 615.99C1925.02 615.99 1938.68 629.65 1938.68 646.51C1938.68 652.61 1938.68 640.4 1938.68 646.51C1938.68 663.36 1925.02 677.02 1908.17 677.02C1750.92 677.02 1309.67 677.02 1152.42 677.02C1135.57 677.02 1121.91 663.36 1121.91 646.51C1121.91 640.4 1121.91 652.61 1121.91 646.51C1121.91 629.65 1135.57 615.99 1152.42 615.99C1309.67 615.99 1750.92 615.99 1908.17 615.99Z" id="d2g2MMIHI1"></path><path d="M1312.99 753.3C1296.44 753.3 1283.02 766.72 1283.02 783.28C1283.02 789.49 1283.02 778.15 1283.02 784.36C1283.02 800.91 1296.44 814.33 1312.99 814.33C1438.88 814.33 1786.57 814.33 1912.46 814.33C1929.01 814.33 1942.43 800.91 1942.43 784.36C1942.43 778.15 1942.43 789.49 1942.43 783.28C1942.43 766.72 1929.01 753.3 1912.46 753.3C1786.57 753.3 1438.88 753.3 1312.99 753.3Z" id="ajY6Y00na"></path><path d="M797.65 753.3C786.37 753.3 777.22 762.45 777.22 773.74C777.22 781.86 777.22 785.78 777.22 793.9C777.22 805.18 786.37 814.33 797.65 814.33C883.49 814.33 1120.55 814.33 1206.38 814.33C1217.67 814.33 1226.82 805.18 1226.82 793.9C1226.82 785.78 1226.82 781.86 1226.82 773.74C1226.82 762.45 1217.67 753.3 1206.38 753.3C1120.55 753.3 883.49 753.3 797.65 753.3Z" id="caD0Uka0d"></path><path d="M-102.71 753.3C-119.56 753.3 -133.22 766.97 -133.22 783.82C-133.22 789.92 -133.22 777.72 -133.22 783.82C-133.22 800.67 -119.56 814.33 -102.71 814.33C63.53 814.33 531.75 814.33 698 814.33C714.85 814.33 728.51 800.67 728.51 783.82C728.51 777.72 728.51 789.92 728.51 783.82C728.51 766.97 714.85 753.3 698 753.3C531.75 753.3 63.53 753.3 -102.71 753.3Z" id="bEas5YiM8"></path><path d="M1107.46 886.8C1090.61 886.8 1076.95 900.46 1076.95 917.31C1076.95 923.42 1076.95 911.21 1076.95 917.31C1076.95 934.17 1090.61 947.83 1107.46 947.83C1273.71 947.83 1741.93 947.83 1908.17 947.83C1925.02 947.83 1938.68 934.17 1938.68 917.31C1938.68 911.21 1938.68 923.42 1938.68 917.31C1938.68 900.46 1925.02 886.8 1908.17 886.8C1741.93 886.8 1273.71 886.8 1107.46 886.8Z" id="aYMqr52dD"></path><path d="M606.57 886.8C595.29 886.8 586.14 895.95 586.14 907.24C586.14 915.36 586.14 919.27 586.14 927.39C586.14 938.68 595.29 947.83 606.57 947.83C692.41 947.83 929.47 947.83 1015.3 947.83C1026.59 947.83 1035.74 938.68 1035.74 927.39C1035.74 919.27 1035.74 915.36 1035.74 907.24C1035.74 895.95 1026.59 886.8 1015.3 886.8C929.47 886.8 692.41 886.8 606.57 886.8Z" id="a511i28sX"></path><path d="M119.51 886.8C108.22 886.8 99.07 895.95 99.07 907.24C99.07 915.36 99.07 919.27 99.07 927.39C99.07 938.68 108.22 947.83 119.51 947.83C205.34 947.83 442.4 947.83 528.23 947.83C539.52 947.83 548.67 938.68 548.67 927.39C548.67 919.27 548.67 915.36 548.67 907.24C548.67 895.95 539.52 886.8 528.23 886.8C442.4 886.8 205.34 886.8 119.51 886.8Z" id="a66UffyFLH"></path><path d="M-116.87 886.8C-121.77 886.8 -125.73 890.77 -125.73 895.66C-125.73 906.09 -125.73 928.54 -125.73 938.97C-125.73 943.86 -121.77 947.83 -116.87 947.83C-79.68 947.83 23.05 947.83 60.24 947.83C65.13 947.83 69.1 943.86 69.1 938.97C69.1 928.54 69.1 906.09 69.1 895.66C69.1 890.77 65.13 886.8 60.24 886.8C23.05 886.8 -79.68 886.8 -116.87 886.8Z" id="g3Uz9g8LQ"></path><path d="M1238.6 1008.86C1221.74 1008.86 1208.08 1022.52 1208.08 1039.37C1208.08 1045.47 1208.08 1033.27 1208.08 1039.37C1208.08 1056.22 1221.74 1069.88 1238.6 1069.88C1378.61 1069.88 1768.15 1069.88 1908.17 1069.88C1925.02 1069.88 1938.68 1056.22 1938.68 1039.37C1938.68 1033.27 1938.68 1045.47 1938.68 1039.37C1938.68 1022.52 1925.02 1008.86 1908.17 1008.86C1768.15 1008.86 1378.61 1008.86 1238.6 1008.86Z" id="aTFZGwcRy"></path><path d="M737.71 1008.86C726.42 1008.86 717.27 1018 717.27 1029.29C717.27 1037.41 717.27 1041.33 717.27 1049.45C717.27 1060.73 726.42 1069.88 737.71 1069.88C823.54 1069.88 1060.6 1069.88 1146.43 1069.88C1157.72 1069.88 1166.87 1060.73 1166.87 1049.45C1166.87 1041.33 1166.87 1037.41 1166.87 1029.29C1166.87 1018 1157.72 1008.86 1146.43 1008.86C1060.6 1008.86 823.54 1008.86 737.71 1008.86Z" id="cnZ5qU55s"></path><path d="M-98.96 1012.67C-115.82 1012.67 -129.48 1026.33 -129.48 1043.18C-129.48 1049.29 -129.48 1037.08 -129.48 1043.18C-129.48 1060.04 -115.82 1073.7 -98.96 1073.7C58.29 1073.7 499.53 1073.7 656.78 1073.7C673.63 1073.7 687.3 1060.04 687.3 1043.18C687.3 1037.08 687.3 1049.29 687.3 1043.18C687.3 1026.33 673.63 1012.67 656.78 1012.67C499.53 1012.67 58.29 1012.67 -98.96 1012.67Z" id="aszJIX1w9"></path><path d="M501.63 1137.57C518.18 1137.57 531.6 1150.99 531.6 1167.54C531.6 1173.75 531.6 1162.41 531.6 1168.62C531.6 1185.18 518.18 1198.6 501.63 1198.6C375.74 1198.6 28.05 1198.6 -97.84 1198.6C-114.39 1198.6 -127.81 1185.18 -127.81 1168.62C-127.81 1162.41 -127.81 1173.75 -127.81 1167.54C-127.81 1150.99 -114.39 1137.57 -97.84 1137.57C28.05 1137.57 375.74 1137.57 501.63 1137.57Z" id="cQbDEXp9J"></path><path d="M1016.96 1137.57C1028.25 1137.57 1037.4 1146.72 1037.4 1158C1037.4 1166.12 1037.4 1170.04 1037.4 1178.16C1037.4 1189.45 1028.25 1198.6 1016.96 1198.6C931.13 1198.6 694.07 1198.6 608.24 1198.6C596.95 1198.6 587.8 1189.45 587.8 1178.16C587.8 1170.04 587.8 1166.12 587.8 1158C587.8 1146.72 596.95 1137.57 608.24 1137.57C694.07 1137.57 931.13 1137.57 1016.96 1137.57Z" id="aw0REwauj"></path><path d="M1917.33 1137.57C1934.18 1137.57 1947.84 1151.23 1947.84 1168.08C1947.84 1174.18 1947.84 1161.98 1947.84 1168.08C1947.84 1184.93 1934.18 1198.6 1917.33 1198.6C1751.08 1198.6 1282.86 1198.6 1116.62 1198.6C1099.77 1198.6 1086.11 1184.93 1086.11 1168.08C1086.11 1161.98 1086.11 1174.18 1086.11 1168.08C1086.11 1151.23 1099.77 1137.57 1116.62 1137.57C1282.86 1137.57 1751.08 1137.57 1917.33 1137.57Z" id="cJaaZsoQs"></path><path d="M707.15 1271.06C724.01 1271.06 737.67 1284.73 737.67 1301.58C737.67 1307.68 737.67 1295.48 737.67 1301.58C737.67 1318.43 724.01 1332.09 707.15 1332.09C540.91 1332.09 72.69 1332.09 -93.55 1332.09C-110.4 1332.09 -124.07 1318.43 -124.07 1301.58C-124.07 1295.48 -124.07 1307.68 -124.07 1301.58C-124.07 1284.73 -110.4 1271.06 -93.55 1271.06C72.69 1271.06 540.91 1271.06 707.15 1271.06Z" id="bkl5XeocZ"></path><path d="M1208.04 1271.06C1219.33 1271.06 1228.48 1280.21 1228.48 1291.5C1228.48 1299.62 1228.48 1303.54 1228.48 1311.66C1228.48 1322.94 1219.33 1332.09 1208.04 1332.09C1122.21 1332.09 885.15 1332.09 799.32 1332.09C788.03 1332.09 778.88 1322.94 778.88 1311.66C778.88 1303.54 778.88 1299.62 778.88 1291.5C778.88 1280.21 788.03 1271.06 799.32 1271.06C885.15 1271.06 1122.21 1271.06 1208.04 1271.06Z" id="bivRHUCRG"></path><path d="M1695.11 1271.06C1706.4 1271.06 1715.55 1280.21 1715.55 1291.5C1715.55 1299.62 1715.55 1303.54 1715.55 1311.66C1715.55 1322.94 1706.4 1332.09 1695.11 1332.09C1609.28 1332.09 1372.22 1332.09 1286.38 1332.09C1275.1 1332.09 1265.95 1322.94 1265.95 1311.66C1265.95 1303.54 1265.95 1299.62 1265.95 1291.5C1265.95 1280.21 1275.1 1271.06 1286.38 1271.06C1372.22 1271.06 1609.28 1271.06 1695.11 1271.06Z" id="fpUYmY8aG"></path><path d="M1931.49 1271.06C1936.38 1271.06 1940.35 1275.03 1940.35 1279.92C1940.35 1290.35 1940.35 1312.8 1940.35 1323.24C1940.35 1328.13 1936.38 1332.09 1931.49 1332.09C1894.3 1332.09 1791.57 1332.09 1754.38 1332.09C1749.49 1332.09 1745.52 1328.13 1745.52 1323.24C1745.52 1312.8 1745.52 1290.35 1745.52 1279.92C1745.52 1275.03 1749.49 1271.06 1754.38 1271.06C1791.57 1271.06 1894.3 1271.06 1931.49 1271.06Z" id="a1CPM69hc6"></path><path d="M576.02 1393.12C592.87 1393.12 606.53 1406.78 606.53 1423.63C606.53 1429.74 606.53 1417.53 606.53 1423.63C606.53 1440.48 592.87 1454.15 576.02 1454.15C436 1454.15 46.46 1454.15 -93.55 1454.15C-110.4 1454.15 -124.07 1440.48 -124.07 1423.63C-124.07 1417.53 -124.07 1429.74 -124.07 1423.63C-124.07 1406.78 -110.4 1393.12 -93.55 1393.12C46.46 1393.12 436 1393.12 576.02 1393.12Z" id="ccwcS1xwO"></path><path d="M1076.91 1393.12C1088.2 1393.12 1097.35 1402.27 1097.35 1413.56C1097.35 1421.67 1097.35 1425.59 1097.35 1433.71C1097.35 1445 1088.2 1454.15 1076.91 1454.15C991.08 1454.15 754.02 1454.15 668.18 1454.15C656.9 1454.15 647.75 1445 647.75 1433.71C647.75 1425.59 647.75 1421.67 647.75 1413.56C647.75 1402.27 656.9 1393.12 668.18 1393.12C754.02 1393.12 991.08 1393.12 1076.91 1393.12Z" id="i167bnzkQM"></path><path d="M1913.58 1396.93C1930.43 1396.93 1944.09 1410.59 1944.09 1427.45C1944.09 1433.55 1944.09 1421.34 1944.09 1427.45C1944.09 1444.3 1930.43 1457.96 1913.58 1457.96C1756.33 1457.96 1315.09 1457.96 1157.83 1457.96C1140.98 1457.96 1127.32 1444.3 1127.32 1427.45C1127.32 1421.34 1127.32 1433.55 1127.32 1427.45C1127.32 1410.59 1140.98 1396.93 1157.83 1396.93C1315.09 1396.93 1756.33 1396.93 1913.58 1396.93Z" id="a2vEH8PWAr"></path><path d="M1318.4 1534.24C1301.85 1534.24 1288.43 1547.66 1288.43 1564.22C1288.43 1570.43 1288.43 1559.09 1288.43 1565.3C1288.43 1581.85 1301.85 1595.27 1318.4 1595.27C1444.29 1595.27 1791.98 1595.27 1917.87 1595.27C1934.42 1595.27 1947.84 1581.85 1947.84 1565.3C1947.84 1559.09 1947.84 1570.43 1947.84 1564.22C1947.84 1547.66 1934.42 1534.24 1917.87 1534.24C1791.98 1534.24 1444.29 1534.24 1318.4 1534.24Z" id="m5QMNx2tq"></path><path d="M803.06 1534.24C791.78 1534.24 782.63 1543.39 782.63 1554.68C782.63 1562.8 782.63 1566.72 782.63 1574.83C782.63 1586.12 791.78 1595.27 803.06 1595.27C888.9 1595.27 1125.96 1595.27 1211.79 1595.27C1223.08 1595.27 1232.23 1586.12 1232.23 1574.83C1232.23 1566.72 1232.23 1562.8 1232.23 1554.68C1232.23 1543.39 1223.08 1534.24 1211.79 1534.24C1125.96 1534.24 888.9 1534.24 803.06 1534.24Z" id="a6AcJGvWl"></path><path d="M-97.3 1534.24C-114.15 1534.24 -127.81 1547.91 -127.81 1564.76C-127.81 1570.86 -127.81 1558.65 -127.81 1564.76C-127.81 1581.61 -114.15 1595.27 -97.3 1595.27C68.94 1595.27 537.16 1595.27 703.41 1595.27C720.26 1595.27 733.92 1581.61 733.92 1564.76C733.92 1558.65 733.92 1570.86 733.92 1564.76C733.92 1547.91 720.26 1534.24 703.41 1534.24C537.16 1534.24 68.94 1534.24 -97.3 1534.24Z" id="c1L3eUisSD"></path><path d="M1112.87 1667.74C1096.02 1667.74 1082.36 1681.4 1082.36 1698.25C1082.36 1704.36 1082.36 1692.15 1082.36 1698.25C1082.36 1715.11 1096.02 1728.77 1112.87 1728.77C1279.12 1728.77 1747.34 1728.77 1913.58 1728.77C1930.43 1728.77 1944.09 1715.11 1944.09 1698.25C1944.09 1692.15 1944.09 1704.36 1944.09 1698.25C1944.09 1681.4 1930.43 1667.74 1913.58 1667.74C1747.34 1667.74 1279.12 1667.74 1112.87 1667.74Z" id="c4bFPeUk3i"></path><path d="M611.98 1667.74C600.7 1667.74 591.55 1676.89 591.55 1688.18C591.55 1696.3 591.55 1700.21 591.55 1708.33C591.55 1719.62 600.7 1728.77 611.98 1728.77C697.82 1728.77 934.88 1728.77 1020.71 1728.77C1032 1728.77 1041.15 1719.62 1041.15 1708.33C1041.15 1700.21 1041.15 1696.3 1041.15 1688.18C1041.15 1676.89 1032 1667.74 1020.71 1667.74C934.88 1667.74 697.82 1667.74 611.98 1667.74Z" id="b4WnhoWf2F"></path><path d="M124.92 1667.74C113.63 1667.74 104.48 1676.89 104.48 1688.18C104.48 1696.3 104.48 1700.21 104.48 1708.33C104.48 1719.62 113.63 1728.77 124.92 1728.77C210.75 1728.77 447.81 1728.77 533.64 1728.77C544.93 1728.77 554.08 1719.62 554.08 1708.33C554.08 1700.21 554.08 1696.3 554.08 1688.18C554.08 1676.89 544.93 1667.74 533.64 1667.74C447.81 1667.74 210.75 1667.74 124.92 1667.74Z" id="i13lTE5kp"></path><path d="M-111.46 1667.74C-116.35 1667.74 -120.32 1671.71 -120.32 1676.6C-120.32 1687.03 -120.32 1709.48 -120.32 1719.91C-120.32 1724.8 -116.35 1728.77 -111.46 1728.77C-74.27 1728.77 28.46 1728.77 65.65 1728.77C70.54 1728.77 74.51 1724.8 74.51 1719.91C74.51 1709.48 74.51 1687.03 74.51 1676.6C74.51 1671.71 70.54 1667.74 65.65 1667.74C28.46 1667.74 -74.27 1667.74 -111.46 1667.74Z" id="a1vx4mkvud"></path><path d="M1244.01 1789.79C1227.16 1789.79 1213.49 1803.46 1213.49 1820.31C1213.49 1826.41 1213.49 1814.21 1213.49 1820.31C1213.49 1837.16 1227.16 1850.82 1244.01 1850.82C1384.02 1850.82 1773.56 1850.82 1913.58 1850.82C1930.43 1850.82 1944.09 1837.16 1944.09 1820.31C1944.09 1814.21 1944.09 1826.41 1944.09 1820.31C1944.09 1803.46 1930.43 1789.79 1913.58 1789.79C1773.56 1789.79 1384.02 1789.79 1244.01 1789.79Z" id="h2Xtf89jfv"></path><path d="M743.12 1789.79C731.83 1789.79 722.68 1798.94 722.68 1810.23C722.68 1818.35 722.68 1822.27 722.68 1830.39C722.68 1841.67 731.83 1850.82 743.12 1850.82C828.95 1850.82 1066.01 1850.82 1151.84 1850.82C1163.13 1850.82 1172.28 1841.67 1172.28 1830.39C1172.28 1822.27 1172.28 1818.35 1172.28 1810.23C1172.28 1798.94 1163.13 1789.79 1151.84 1789.79C1066.01 1789.79 828.95 1789.79 743.12 1789.79Z" id="c9BXG7c4H"></path><path d="M-93.55 1793.61C-110.4 1793.61 -124.07 1807.27 -124.07 1824.12C-124.07 1830.23 -124.07 1818.02 -124.07 1824.12C-124.07 1840.97 -110.4 1854.64 -93.55 1854.64C63.7 1854.64 504.94 1854.64 662.19 1854.64C679.05 1854.64 692.71 1840.97 692.71 1824.12C692.71 1818.02 692.71 1830.23 692.71 1824.12C692.71 1807.27 679.05 1793.61 662.19 1793.61C504.94 1793.61 63.7 1793.61 -93.55 1793.61Z" id="d1ftn6gpf"></path><path d="M248.11 1763.54L407.74 1811.22L401.2 2167.85C306.37 2166.96 247.11 2166.41 223.4 2166.19C206.4 2166.03 190.57 2157.49 181.11 2143.36C177.24 2137.58 187.88 2153.47 185.79 2150.35C170.25 2127.14 163.26 2099.25 166.03 2071.45C169.16 2040 166.63 2065.38 167.86 2053.12C177.04 1960.92 198.49 1870.36 231.63 1783.83C231.96 1782.96 232.8 1780.77 234.14 1777.27L248.11 1763.54Z" id="bc54Py0C2"></path><path d="M1508.95 1758.2L1349.31 1806.39L1355.86 2166.86C1450.53 2165.97 1509.7 2165.42 1533.36 2165.2C1550.54 2165.03 1566.51 2156.36 1576 2142.04C1579.86 2136.21 1569.11 2152.43 1571.19 2149.3C1586.79 2125.75 1593.8 2097.54 1591.02 2069.42C1587.89 2037.64 1590.42 2063.31 1589.2 2050.91C1580.01 1957.7 1558.54 1866.12 1525.36 1778.53C1525.03 1777.67 1524.22 1775.52 1522.91 1772.08L1508.95 1758.2Z" id="c1rdwVAfID"></path><path d="M-732.81 2275.54L2455.28 2275.54L2455.28 2824.79L-732.81 2824.79L-732.81 2275.54Z" id="d3FmDHJxS"></path><path d="M-848.11 2168.75L2564.82 2168.75L2564.82 2275.54L-848.11 2275.54L-848.11 2168.75Z" id="c8sE964we"></path><path d="M742.19 1205.14L1034.19 1205.14L1034.19 1405.39L742.19 1405.39L742.19 1205.14Z" id="c7e6kIDaI"></path><path d="M647.34 1025.69L776.05 1205.14L1022.49 1205.14L1126.25 988.5L1152.19 718.64L1079.64 594.87L689.25 597.54L625.39 718.64L647.34 1025.69Z" id="c6oLzZ7aCr"></path><path d="M1349.23 1426.1L1350.94 1426.7L1352.63 1427.33L1354.31 1428L1355.97 1428.71L1357.61 1429.44L1359.23 1430.22L1360.83 1431.02L1362.41 1431.86L1363.98 1432.73L1365.52 1433.63L1367.04 1434.57L1368.54 1435.54L1370.01 1436.53L1371.47 1437.56L1372.9 1438.62L1374.3 1439.71L1375.69 1440.83L1377.05 1441.97L1378.38 1443.15L1379.69 1444.35L1380.97 1445.58L1382.23 1446.84L1383.46 1448.12L1384.66 1449.44L1385.84 1450.77L1386.99 1452.14L1388.1 1453.53L1389.19 1454.94L1390.25 1456.38L1391.29 1457.84L1392.29 1459.32L1393.25 1460.83L1394.19 1462.36L1395.1 1463.92L1395.97 1465.49L1396.81 1467.09L1397.62 1468.71L1398.4 1470.35L1399.14 1472L1531.61 1777.57L1367.98 1815.41L1369.98 1570.93L404.19 1567.15L392.22 1815.41L228.59 1773.41L371.64 1463.1L372.45 1461.4L373.29 1459.72L374.17 1458.06L375.08 1456.43L376.02 1454.83L377 1453.24L378.01 1451.68L379.05 1450.15L380.13 1448.64L381.23 1447.16L382.37 1445.7L383.54 1444.27L384.73 1442.86L385.96 1441.49L387.21 1440.14L388.5 1438.82L389.81 1437.52L391.15 1436.26L392.51 1435.03L393.9 1433.83L395.32 1432.65L396.76 1431.51L398.23 1430.4L399.72 1429.32L401.23 1428.27L402.77 1427.26L404.33 1426.28L405.91 1425.33L407.52 1424.41L409.14 1423.53L410.79 1422.69L412.45 1421.88L414.14 1421.1L415.84 1420.36L417.57 1419.66L419.31 1418.99L421.07 1418.37L422.84 1417.77L424.64 1417.22L426.45 1416.71L735.43 1332.51L742.45 1332.42L743.35 1334.53L745.11 1338.12L747.08 1341.65L749.27 1345.11L751.65 1348.51L754.24 1351.83L757.02 1355.08L759.99 1358.25L763.15 1361.34L766.49 1364.35L770 1367.27L773.68 1370.1L777.53 1372.84L781.54 1375.48L785.7 1378.03L790.02 1380.47L794.48 1382.81L799.08 1385.04L803.82 1387.15L808.69 1389.16L813.69 1391.04L818.81 1392.81L824.05 1394.45L829.39 1395.97L834.85 1397.35L840.41 1398.61L846.06 1399.72L851.81 1400.7L857.64 1401.54L863.56 1402.23L869.56 1402.77L875.63 1403.16L881.77 1403.4L887.97 1403.48L894.17 1403.4L900.31 1403.16L906.38 1402.77L912.37 1402.23L918.29 1401.54L924.13 1400.7L929.87 1399.72L935.53 1398.61L941.09 1397.35L946.54 1395.97L951.89 1394.45L957.12 1392.81L962.24 1391.04L967.24 1389.16L972.11 1387.15L976.85 1385.04L981.45 1382.81L985.91 1380.47L990.23 1378.03L994.39 1375.48L998.4 1372.84L1002.25 1370.1L1005.93 1367.27L1009.45 1364.35L1012.78 1361.34L1015.94 1358.25L1018.91 1355.08L1021.69 1351.83L1024.28 1348.51L1026.67 1345.11L1028.85 1341.65L1030.83 1338.12L1032.59 1334.53L1034.13 1330.89L1034.88 1328.77L1038.51 1328.72L1347.5 1425.54L1349.23 1426.1Z" id="c13WLFUNY"></path><path d="M884.94 661.33L882.99 661.56L881.03 661.74L879.07 661.86L877.1 661.94L875.14 661.96L873.18 661.93L871.22 661.85L869.26 661.72L867.3 661.54L865.35 661.31L863.41 661.03L861.47 660.69L859.55 660.31L857.63 659.87L855.72 659.38L853.82 658.85L851.93 658.26L850.06 657.62L848.2 656.93L846.35 656.19L844.52 655.4L842.71 654.56L840.92 653.67L839.15 652.73L837.4 651.74L835.66 650.7L833.96 649.6L803.1 629.31L801.27 628.14L799.41 627.02L797.52 625.95L795.62 624.93L793.69 623.97L791.75 623.07L789.78 622.21L787.8 621.41L785.8 620.67L783.79 619.98L781.76 619.34L779.72 618.75L777.67 618.22L775.61 617.75L773.54 617.32L771.45 616.95L769.37 616.64L767.27 616.38L765.17 616.17L763.06 616.02L760.96 615.93L758.84 615.88L756.73 615.9L754.62 615.96L752.51 616.08L750.4 616.26L748.3 616.49L746.2 616.78L744.1 617.12L742.02 617.51L739.93 617.97L737.86 618.47L735.8 619.03L733.75 619.65L731.71 620.32L729.69 621.05L727.68 621.83L725.68 622.67L723.7 623.56L721.74 624.51L709.92 630.43L708.58 631.11L707.25 631.81L705.92 632.51L704.61 633.23L703.3 633.96L702 634.71L700.72 635.47L699.43 636.24L698.16 637.03L696.9 637.83L695.64 638.64L694.4 639.47L693.16 640.31L691.93 641.16L690.71 642.02L689.5 642.9L688.3 643.79L687.11 644.69L685.93 645.6L684.76 646.53L683.6 647.47L682.45 648.42L681.31 649.38L680.18 650.36L679.06 651.34L677.94 652.34L676.84 653.35L675.75 654.37L674.67 655.41L673.6 656.45L672.55 657.51L671.5 658.58L670.46 659.66L669.44 660.75L668.42 661.85L667.42 662.96L666.43 664.08L665.45 665.22L664.48 666.36L663.52 667.52L663.25 667.86L662.03 669.37L660.84 670.9L659.68 672.45L658.54 674.02L657.44 675.6L656.36 677.2L655.31 678.81L654.29 680.45L653.29 682.09L652.33 683.76L651.39 685.43L650.48 687.13L649.61 688.83L648.76 690.55L647.94 692.29L647.15 694.03L646.39 695.79L645.65 697.56L644.95 699.34L644.28 701.14L643.64 702.94L643.03 704.76L642.45 706.58L641.9 708.42L641.38 710.26L640.89 712.12L640.43 713.98L640.01 715.85L639.61 717.73L639.25 719.62L638.92 721.51L638.62 723.41L638.35 725.32L638.11 727.23L637.91 729.15L637.73 731.07L637.59 733L637.49 734.94L637.41 736.87L637.37 738.81L636.08 837.07L596.69 832.31L593.64 816.41L593.34 814.82L593.05 813.24L592.76 811.65L592.49 810.06L592.22 808.47L591.96 806.88L591.71 805.28L591.46 803.69L591.23 802.09L591 800.5L590.78 798.9L590.57 797.3L590.37 795.7L590.18 794.1L589.99 792.5L589.82 790.9L589.65 789.3L589.49 787.69L589.33 786.09L589.19 784.48L589.05 782.88L588.92 781.27L588.8 779.67L588.69 778.06L588.59 776.45L588.49 774.84L588.41 773.23L588.33 771.62L588.26 770.01L588.2 768.4L588.14 766.79L588.1 765.18L588.06 763.56L588.03 761.95L588.01 760.34L588 758.73L587.99 757.11L588 755.5L588.01 753.89L588.03 752.27L589.08 683.94L589.1 682.66L589.14 681.38L589.19 680.1L589.25 678.83L589.33 677.55L589.41 676.28L589.51 675.01L589.63 673.74L589.75 672.47L589.89 671.2L590.03 669.94L590.19 668.68L590.37 667.41L590.55 666.15L590.75 664.9L590.96 663.64L591.18 662.39L591.41 661.14L591.65 659.89L591.91 658.64L592.18 657.4L592.46 656.15L592.75 654.92L593.06 653.68L593.37 652.45L593.7 651.22L594.04 649.99L594.4 648.77L594.76 647.55L595.13 646.33L595.52 645.11L595.92 643.9L596.33 642.7L596.76 641.49L597.19 640.29L597.64 639.1L598.09 637.91L598.56 636.72L599.04 635.54L599.54 634.36L605.55 620.17L606.31 618.39L607.08 616.63L607.87 614.87L608.67 613.11L609.49 611.37L610.32 609.63L611.16 607.9L612.02 606.18L612.89 604.46L613.78 602.75L614.68 601.05L615.6 599.36L616.53 597.67L617.47 595.99L618.42 594.32L619.39 592.66L620.37 591.01L621.37 589.36L622.38 587.73L623.4 586.1L624.44 584.48L625.49 582.87L626.55 581.26L627.63 579.67L628.72 578.08L629.82 576.51L630.94 574.94L632.07 573.38L633.21 571.83L634.36 570.29L635.53 568.76L636.71 567.24L637.9 565.73L639.1 564.23L640.32 562.73L641.55 561.25L642.8 559.78L644.05 558.31L645.32 556.86L646.6 555.41L647.68 554.21L648.74 553.03L649.81 551.86L650.9 550.7L651.99 549.56L653.09 548.42L654.2 547.29L655.33 546.17L656.46 545.07L657.6 543.97L658.75 542.88L659.91 541.81L661.08 540.74L662.26 539.69L663.45 538.64L664.65 537.61L665.86 536.59L667.07 535.58L668.3 534.58L669.53 533.59L670.77 532.61L672.02 531.64L673.28 530.69L674.55 529.74L675.83 528.81L677.11 527.89L678.4 526.98L679.71 526.08L681.02 525.19L682.33 524.32L683.66 523.45L684.99 522.6L686.33 521.76L687.68 520.93L689.04 520.11L690.4 519.31L691.78 518.52L693.16 517.74L694.54 516.97L695.94 516.21L697.34 515.47L712.27 507.62L714.04 506.7L715.81 505.79L717.59 504.89L719.37 503.99L721.15 503.11L722.94 502.24L724.74 501.38L726.54 500.53L728.34 499.69L730.15 498.86L731.96 498.04L733.78 497.23L735.6 496.43L737.43 495.64L739.26 494.86L741.09 494.09L742.93 493.33L744.78 492.58L746.62 491.84L748.48 491.12L750.33 490.4L752.19 489.69L754.05 489L755.92 488.31L757.79 487.63L759.67 486.97L761.55 486.31L763.43 485.67L765.32 485.03L767.21 484.41L769.1 483.8L771 483.2L772.9 482.6L774.8 482.02L776.71 481.45L778.62 480.89L780.53 480.34L782.45 479.8L784.37 479.28L786.3 478.76L787.23 478.51L788.47 478.19L789.72 477.87L790.97 477.56L792.22 477.25L793.47 476.96L794.73 476.67L795.98 476.4L797.24 476.13L798.5 475.87L799.76 475.61L801.03 475.37L802.29 475.13L803.55 474.9L804.82 474.68L806.09 474.47L807.36 474.27L808.63 474.07L809.9 473.88L811.17 473.7L812.45 473.53L813.72 473.37L815 473.22L816.28 473.07L817.55 472.93L818.83 472.81L820.11 472.68L821.39 472.57L822.68 472.47L823.96 472.37L825.24 472.28L826.52 472.2L827.81 472.13L829.09 472.07L830.38 472.02L831.67 471.97L832.95 471.93L834.24 471.9L835.53 471.88L836.81 471.87L838.1 471.87L885.84 471.87L885.84 661.2L884.94 661.33Z" id="a4hVuqJfE"></path><path d="M926.63 471.88L927.92 471.9L929.2 471.93L930.49 471.97L931.78 472.02L933.06 472.07L934.35 472.13L935.63 472.2L936.92 472.28L938.2 472.37L939.48 472.47L940.76 472.57L942.04 472.68L943.32 472.81L944.6 472.93L945.88 473.07L947.16 473.22L948.43 473.37L949.71 473.53L950.98 473.7L952.26 473.88L953.53 474.07L954.8 474.27L956.07 474.47L957.33 474.68L958.6 474.9L959.87 475.13L961.13 475.37L962.39 475.61L963.65 475.87L964.91 476.13L966.17 476.4L967.43 476.67L968.68 476.96L969.94 477.25L971.19 477.56L972.44 477.87L973.68 478.19L974.93 478.51L975.86 478.76L977.78 479.28L979.71 479.8L981.62 480.34L983.54 480.89L985.45 481.45L987.36 482.02L989.26 482.6L991.16 483.2L993.06 483.8L994.95 484.41L996.84 485.03L998.73 485.67L1000.61 486.31L1002.49 486.97L1004.36 487.63L1006.23 488.31L1008.1 489L1009.97 489.69L1011.82 490.4L1013.68 491.12L1015.53 491.84L1017.38 492.58L1019.22 493.33L1021.06 494.09L1022.9 494.86L1024.73 495.64L1026.55 496.43L1028.37 497.23L1030.19 498.04L1032.01 498.86L1033.81 499.69L1035.62 500.53L1037.42 501.38L1039.21 502.24L1041 503.11L1042.79 503.99L1044.57 504.89L1046.35 505.79L1048.12 506.7L1049.88 507.62L1064.82 515.47L1066.22 516.21L1067.61 516.97L1069 517.74L1070.38 518.52L1071.75 519.31L1073.12 520.11L1074.47 520.93L1075.82 521.76L1077.16 522.6L1078.5 523.45L1079.82 524.32L1081.14 525.19L1082.45 526.08L1083.75 526.98L1085.05 527.89L1086.33 528.81L1087.61 529.74L1088.87 530.69L1090.13 531.64L1091.39 532.61L1092.63 533.59L1093.86 534.58L1095.09 535.58L1096.3 536.59L1097.51 537.61L1098.71 538.64L1099.89 539.69L1101.07 540.74L1102.24 541.81L1103.4 542.88L1104.56 543.97L1105.7 545.07L1106.83 546.17L1107.95 547.29L1109.06 548.42L1110.17 549.56L1111.26 550.7L1112.34 551.86L1113.42 553.03L1114.48 554.21L1115.56 555.41L1116.84 556.86L1118.11 558.31L1119.36 559.78L1120.6 561.25L1121.83 562.73L1123.05 564.23L1124.26 565.73L1125.45 567.24L1126.63 568.76L1127.8 570.29L1128.95 571.83L1130.09 573.38L1131.22 574.94L1132.33 576.51L1133.44 578.08L1134.53 579.67L1135.6 581.26L1136.67 582.87L1137.72 584.48L1138.75 586.1L1139.78 587.73L1140.78 589.36L1141.78 591.01L1142.76 592.66L1143.73 594.32L1144.69 595.99L1145.63 597.67L1146.56 599.36L1147.47 601.05L1148.37 602.75L1149.26 604.46L1150.13 606.18L1150.99 607.9L1151.84 609.63L1152.67 611.37L1153.49 613.11L1154.29 614.87L1155.08 616.63L1155.85 618.39L1156.61 620.17L1162.62 634.36L1163.11 635.54L1163.59 636.72L1164.06 637.91L1164.52 639.1L1164.97 640.29L1165.4 641.49L1165.82 642.7L1166.23 643.9L1166.63 645.11L1167.02 646.33L1167.4 647.55L1167.76 648.77L1168.11 649.99L1168.45 651.22L1168.78 652.45L1169.1 653.68L1169.4 654.92L1169.7 656.15L1169.98 657.4L1170.24 658.64L1170.5 659.89L1170.75 661.14L1170.98 662.39L1171.2 663.64L1171.41 664.9L1171.6 666.15L1171.79 667.41L1171.96 668.68L1172.12 669.94L1172.27 671.2L1172.41 672.47L1172.53 673.74L1172.64 675.01L1172.74 676.28L1172.83 677.55L1172.9 678.83L1172.97 680.1L1173.02 681.38L1173.05 682.66L1173.08 683.94L1174.13 752.27L1174.15 753.89L1174.16 755.5L1174.16 757.11L1174.16 758.73L1174.15 760.34L1174.13 761.95L1174.1 763.56L1174.06 765.18L1174.01 766.79L1173.96 768.4L1173.9 770.01L1173.83 771.62L1173.75 773.23L1173.66 774.84L1173.57 776.45L1173.46 778.06L1173.35 779.67L1173.23 781.27L1173.1 782.88L1172.97 784.48L1172.82 786.09L1172.67 787.69L1172.51 789.3L1172.34 790.9L1172.16 792.5L1171.98 794.1L1171.78 795.7L1171.58 797.3L1171.37 798.9L1171.15 800.5L1170.93 802.09L1170.69 803.69L1170.45 805.28L1170.2 806.88L1169.94 808.47L1169.67 810.06L1169.4 811.65L1169.11 813.24L1168.82 814.82L1168.52 816.41L1165.47 832.31L1135.06 837.07L1127.37 738.7L1127.21 736.75L1127.01 734.81L1126.79 732.88L1126.53 730.95L1126.25 729.02L1125.93 727.11L1125.59 725.2L1125.22 723.29L1124.82 721.4L1124.39 719.51L1123.94 717.63L1123.45 715.75L1122.94 713.89L1122.4 712.03L1121.83 710.18L1121.23 708.35L1120.61 706.52L1119.96 704.7L1119.28 702.89L1118.57 701.1L1117.84 699.31L1117.08 697.53L1116.29 695.77L1115.47 694.02L1114.63 692.28L1113.77 690.55L1112.87 688.84L1111.95 687.14L1111.01 685.45L1110.03 683.78L1109.04 682.12L1108.01 680.47L1106.96 678.84L1105.89 677.22L1104.79 675.62L1103.66 674.04L1102.51 672.47L1101.34 670.91L1100.14 669.38L1098.91 667.86L1098.63 667.52L1097.68 666.36L1096.71 665.22L1095.73 664.08L1094.74 662.96L1093.73 661.85L1092.72 660.75L1091.69 659.66L1090.66 658.58L1089.61 657.51L1088.55 656.45L1087.48 655.41L1086.4 654.37L1085.31 653.35L1084.21 652.34L1083.1 651.34L1081.98 650.36L1080.85 649.38L1079.71 648.42L1078.56 647.47L1077.39 646.53L1076.22 645.6L1075.04 644.69L1073.85 643.79L1072.65 642.9L1071.44 642.02L1070.22 641.16L1069 640.31L1067.76 639.47L1066.51 638.64L1065.26 637.83L1063.99 637.03L1062.72 636.24L1061.44 635.47L1060.15 634.71L1058.85 633.96L1057.55 633.23L1056.23 632.51L1054.91 631.81L1053.58 631.11L1052.24 630.43L1040.42 624.51L1038.46 623.56L1036.48 622.67L1034.48 621.83L1032.47 621.05L1030.44 620.32L1028.41 619.65L1026.35 619.03L1024.29 618.47L1022.22 617.97L1020.14 617.51L1018.05 617.12L1015.96 616.78L1013.86 616.49L1011.75 616.26L1009.65 616.08L1007.53 615.96L1005.42 615.9L1003.31 615.88L1001.2 615.93L999.09 616.02L996.99 616.17L994.89 616.38L992.79 616.64L990.7 616.95L988.62 617.32L986.55 617.75L984.48 618.22L982.43 618.75L980.39 619.34L978.37 619.98L976.35 620.67L974.35 621.41L972.37 622.21L970.41 623.07L968.46 623.97L966.54 624.93L964.63 625.95L962.75 627.02L960.89 628.14L959.05 629.31L928.2 649.6L926.49 650.7L924.76 651.74L923.01 652.73L921.23 653.67L919.44 654.56L917.63 655.4L915.8 656.19L913.96 656.93L912.1 657.62L910.23 658.26L908.34 658.85L906.44 659.38L904.53 659.87L902.61 660.31L900.68 660.69L898.75 661.03L896.8 661.31L894.85 661.54L892.9 661.72L890.94 661.85L888.98 661.93L887.02 661.96L885.05 661.94L883.09 661.86L881.13 661.74L879.17 661.56L877.22 661.33L876.32 661.2L876.32 471.87L924.05 471.87L925.34 471.87L926.63 471.88Z" id="g5n6gHJbL"></path><path d="M947.14 1048.1C935.1 1043.3 922.24 1040.92 909.29 1041.07C897.68 1041.22 878.75 1041.45 866.21 1041.6C856.31 1041.73 846.52 1043.62 837.29 1047.19C823.9 1052.36 795.39 1063.39 781.43 1068.79C774.75 1071.37 770.35 1077.8 770.35 1084.96C770.35 1090.21 770.35 1093.88 770.35 1099.08C770.35 1105.79 775.79 1111.22 782.49 1111.22C786.05 1111.22 787.28 1111.22 791.52 1111.22C796.36 1111.22 800.28 1107.3 800.28 1102.45C800.28 1100.39 800.28 1102.91 800.28 1100.83C800.28 1095.62 803.55 1090.97 808.45 1089.2C817.4 1085.98 830.32 1081.31 837.83 1078.61C847.98 1074.95 858.68 1073.08 869.46 1073.08C881.56 1073.08 903.25 1073.08 915.77 1073.08C925.16 1073.08 934.47 1074.84 943.22 1078.27C950.29 1081.05 961.34 1085.38 969.17 1088.46C974.91 1090.71 978.83 1096.07 979.25 1102.21C979.38 1104.02 979.14 1100.54 979.28 1102.63C979.61 1107.47 983.63 1111.22 988.48 1111.22C992.74 1111.22 997.88 1111.22 1002.39 1111.22C1006.48 1111.22 1009.8 1107.9 1009.8 1103.8C1009.8 1097.66 1009.8 1094.03 1009.8 1089.74C1009.8 1079.68 1003.67 1070.63 994.33 1066.91C981.24 1061.69 959.67 1053.09 947.14 1048.1Z" id="c2ctPpAT0X"></path><path d="M653.38 952.11L654.06 956.31L654.8 960.5L655.59 964.69L656.43 968.86L657.31 973.01L658.24 977.16L659.23 981.29L660.26 985.41L661.34 989.51L662.46 993.6L663.64 997.68L664.86 1001.74L666.13 1005.78L667.44 1009.81L668.81 1013.82L670.22 1017.81L671.68 1021.79L673.18 1025.75L674.73 1029.69L676.33 1033.61L677.97 1037.52L679.66 1041.4L681.39 1045.27L683.18 1049.11L685 1052.94L686.87 1056.74L688.79 1060.52L690.75 1064.28L692.76 1068.02L694.81 1071.73L696.9 1075.42L699.04 1079.09L701.23 1082.74L703.46 1086.36L705.73 1089.95L708.04 1093.52L710.4 1097.07L712.8 1100.59L715.25 1104.08L746.22 1147.75L747.76 1149.87L749.35 1151.94L750.98 1153.96L752.66 1155.94L754.38 1157.88L756.14 1159.77L757.94 1161.61L759.79 1163.4L761.67 1165.15L763.6 1166.84L765.56 1168.49L767.56 1170.09L769.59 1171.64L771.66 1173.13L773.76 1174.58L775.89 1175.98L778.06 1177.32L780.25 1178.61L782.48 1179.84L784.74 1181.03L787.02 1182.15L789.33 1183.23L791.66 1184.25L794.02 1185.21L796.4 1186.12L798.81 1186.97L801.23 1187.76L803.68 1188.49L806.15 1189.17L808.63 1189.79L811.14 1190.35L813.66 1190.84L816.19 1191.28L818.74 1191.66L821.31 1191.98L823.88 1192.23L826.47 1192.42L829.07 1192.55L831.68 1192.62L834.29 1192.62L893.24 1191.94L893.24 1262.36L842.43 1262.36L841.25 1262.35L840.06 1262.33L838.88 1262.3L837.7 1262.25L836.51 1262.19L835.33 1262.12L834.15 1262.03L832.98 1261.93L831.8 1261.82L830.63 1261.7L829.45 1261.56L828.28 1261.41L827.12 1261.24L825.95 1261.07L824.79 1260.88L823.62 1260.67L822.46 1260.46L821.31 1260.23L820.15 1259.99L819 1259.73L817.85 1259.47L816.71 1259.19L815.57 1258.9L814.43 1258.59L813.29 1258.27L812.16 1257.94L811.03 1257.6L809.91 1257.24L808.79 1256.87L807.67 1256.49L806.55 1256.1L805.45 1255.69L804.34 1255.28L803.24 1254.84L802.14 1254.4L801.05 1253.94L799.96 1253.48L798.88 1253L797.8 1252.5L796.73 1252L795.3 1251.31L794.46 1250.91L793.62 1250.51L792.79 1250.1L791.96 1249.68L791.13 1249.27L790.3 1248.85L789.47 1248.42L788.65 1248L787.82 1247.57L787 1247.14L786.18 1246.7L785.36 1246.26L784.55 1245.82L783.73 1245.37L782.92 1244.92L782.11 1244.47L781.3 1244.01L780.5 1243.55L779.69 1243.09L778.89 1242.62L778.09 1242.15L777.29 1241.68L776.49 1241.2L775.7 1240.72L774.9 1240.24L774.11 1239.75L773.32 1239.26L772.53 1238.77L771.75 1238.28L770.97 1237.78L770.19 1237.27L769.41 1236.77L768.63 1236.26L767.85 1235.75L767.08 1235.23L766.31 1234.71L765.54 1234.19L764.78 1233.67L764.01 1233.14L763.25 1232.61L762.07 1231.78L760.91 1230.96L759.75 1230.13L758.6 1229.29L757.45 1228.44L756.31 1227.59L755.18 1226.73L754.06 1225.85L752.94 1224.98L751.83 1224.09L750.72 1223.19L749.62 1222.29L748.53 1221.38L747.44 1220.46L746.37 1219.53L745.3 1218.6L744.23 1217.65L743.17 1216.7L742.12 1215.74L741.08 1214.78L740.04 1213.8L739.02 1212.82L737.99 1211.83L736.98 1210.84L735.97 1209.83L734.97 1208.82L733.98 1207.8L733 1206.78L732.02 1205.74L731.05 1204.7L730.09 1203.65L729.13 1202.6L728.19 1201.54L727.25 1200.47L726.32 1199.39L725.39 1198.31L724.48 1197.22L723.57 1196.12L722.67 1195.02L721.78 1193.91L720.89 1192.79L719.85 1191.46L717.81 1188.84L715.79 1186.22L713.79 1183.57L711.8 1180.92L709.84 1178.26L707.89 1175.58L705.96 1172.89L704.04 1170.18L702.15 1167.47L700.27 1164.74L698.41 1162L696.57 1159.25L694.75 1156.49L692.95 1153.71L691.16 1150.92L689.39 1148.13L687.65 1145.32L685.92 1142.5L684.2 1139.66L682.51 1136.82L680.84 1133.96L679.18 1131.1L677.55 1128.22L675.93 1125.34L674.33 1122.44L672.75 1119.53L671.19 1116.61L669.65 1113.68L668.13 1110.74L666.63 1107.79L665.14 1104.83L663.68 1101.86L662.24 1098.88L660.81 1095.89L659.41 1092.89L658.02 1089.88L656.65 1086.86L655.31 1083.83L653.98 1080.8L652.67 1077.75L652.35 1076.99L651.28 1074.44L650.24 1071.88L649.22 1069.31L648.23 1066.74L647.26 1064.15L646.31 1061.55L645.39 1058.95L644.5 1056.34L643.63 1053.72L642.79 1051.1L641.97 1048.46L641.18 1045.82L640.42 1043.17L639.68 1040.52L638.96 1037.86L638.27 1035.19L637.61 1032.52L636.97 1029.84L636.36 1027.15L635.77 1024.46L635.21 1021.77L634.68 1019.06L634.17 1016.36L633.69 1013.64L633.23 1010.93L632.8 1008.21L632.4 1005.48L632.02 1002.75L631.67 1000.02L631.34 997.28L631.04 994.54L630.77 991.79L630.52 989.04L630.3 986.29L630.11 983.54L629.94 980.78L629.8 978.02L629.69 975.26L629.6 972.5L629.54 969.73L627.51 852.99L638.82 852.33L638.82 852.33L652.74 947.89L653.38 952.11Z" id="c4PmwZiPmG"></path><path d="M1143.8 969.73L1143.74 972.5L1143.65 975.26L1143.54 978.02L1143.4 980.78L1143.23 983.54L1143.03 986.29L1142.81 989.04L1142.57 991.79L1142.29 994.54L1141.99 997.28L1141.67 1000.02L1141.32 1002.75L1140.94 1005.48L1140.54 1008.21L1140.1 1010.93L1139.65 1013.64L1139.17 1016.36L1138.66 1019.06L1138.12 1021.77L1137.56 1024.46L1136.98 1027.15L1136.37 1029.84L1135.73 1032.52L1135.06 1035.19L1134.38 1037.86L1133.66 1040.52L1132.92 1043.17L1132.15 1045.82L1131.36 1048.46L1130.55 1051.1L1129.7 1053.72L1128.84 1056.34L1127.94 1058.95L1127.02 1061.55L1126.08 1064.15L1125.11 1066.74L1124.12 1069.31L1123.1 1071.88L1122.05 1074.44L1120.98 1076.99L1120.66 1077.75L1119.36 1080.8L1118.03 1083.83L1116.68 1086.86L1115.32 1089.88L1113.93 1092.89L1112.53 1095.89L1111.1 1098.88L1109.66 1101.86L1108.19 1104.83L1106.71 1107.79L1105.21 1110.74L1103.69 1113.68L1102.14 1116.61L1100.58 1119.53L1099.01 1122.44L1097.41 1125.34L1095.79 1128.22L1094.15 1131.1L1092.5 1133.96L1090.83 1136.82L1089.13 1139.66L1087.42 1142.5L1085.69 1145.32L1083.94 1148.13L1082.18 1150.92L1080.39 1153.71L1078.59 1156.49L1076.77 1159.25L1074.92 1162L1073.07 1164.74L1071.19 1167.47L1069.29 1170.18L1067.38 1172.89L1065.45 1175.58L1063.5 1178.26L1061.53 1180.92L1059.55 1183.57L1057.54 1186.22L1055.52 1188.84L1053.49 1191.46L1052.44 1192.79L1051.56 1193.91L1050.67 1195.02L1049.77 1196.12L1048.86 1197.22L1047.94 1198.31L1047.02 1199.39L1046.09 1200.47L1045.15 1201.54L1044.2 1202.6L1043.25 1203.65L1042.29 1204.7L1041.32 1205.74L1040.34 1206.78L1039.35 1207.8L1038.36 1208.82L1037.36 1209.83L1036.36 1210.84L1035.34 1211.83L1034.32 1212.82L1033.29 1213.8L1032.26 1214.78L1031.21 1215.74L1030.16 1216.7L1029.11 1217.65L1028.04 1218.6L1026.97 1219.53L1025.89 1220.46L1024.81 1221.38L1023.72 1222.29L1022.62 1223.19L1021.51 1224.09L1020.4 1224.98L1019.28 1225.85L1018.16 1226.73L1017.02 1227.59L1015.88 1228.44L1014.74 1229.29L1013.59 1230.13L1012.43 1230.96L1011.26 1231.78L1010.09 1232.61L1009.33 1233.14L1008.56 1233.67L1007.8 1234.19L1007.03 1234.71L1006.26 1235.23L1005.48 1235.75L1004.71 1236.26L1003.93 1236.77L1003.15 1237.27L1002.37 1237.78L1001.59 1238.28L1000.8 1238.77L1000.02 1239.26L999.23 1239.75L998.44 1240.24L997.64 1240.72L996.85 1241.2L996.05 1241.68L995.25 1242.15L994.45 1242.62L993.65 1243.09L992.84 1243.55L992.04 1244.01L991.23 1244.47L990.42 1244.92L989.6 1245.37L988.79 1245.82L987.97 1246.26L987.16 1246.7L986.34 1247.14L985.51 1247.57L984.69 1248L983.87 1248.42L983.04 1248.85L982.21 1249.27L981.38 1249.68L980.55 1250.1L979.71 1250.51L978.88 1250.91L978.04 1251.31L976.61 1252L975.53 1252.5L974.46 1253L973.37 1253.48L972.29 1253.94L971.19 1254.4L970.1 1254.84L969 1255.28L967.89 1255.69L966.78 1256.1L965.67 1256.49L964.55 1256.87L963.43 1257.24L962.31 1257.6L961.18 1257.94L960.04 1258.27L958.91 1258.59L957.77 1258.9L956.63 1259.19L955.48 1259.47L954.33 1259.73L953.18 1259.99L952.03 1260.23L950.87 1260.46L949.71 1260.67L948.55 1260.88L947.39 1261.07L946.22 1261.24L945.05 1261.41L943.88 1261.56L942.71 1261.7L941.54 1261.82L940.36 1261.93L939.18 1262.03L938 1262.12L936.82 1262.19L935.64 1262.25L934.46 1262.3L933.27 1262.33L932.09 1262.35L930.9 1262.36L880.1 1262.36L880.1 1191.94L939.04 1192.62L941.66 1192.62L944.27 1192.55L946.87 1192.42L949.45 1192.23L952.03 1191.98L954.59 1191.66L957.14 1191.28L959.68 1190.84L962.2 1190.35L964.7 1189.79L967.19 1189.17L969.66 1188.49L972.1 1187.76L974.53 1186.97L976.94 1186.12L979.32 1185.21L981.68 1184.25L984.01 1183.23L986.32 1182.15L988.6 1181.03L990.86 1179.84L993.08 1178.61L995.28 1177.32L997.44 1175.98L999.58 1174.58L1001.68 1173.13L1003.75 1171.64L1005.78 1170.09L1007.78 1168.49L1009.74 1166.84L1011.66 1165.15L1013.55 1163.4L1015.39 1161.61L1017.2 1159.77L1018.96 1157.88L1020.68 1155.94L1022.36 1153.96L1023.99 1151.94L1025.58 1149.87L1027.11 1147.75L1058.09 1104.08L1060.53 1100.59L1062.93 1097.07L1065.29 1093.52L1067.61 1089.95L1069.88 1086.36L1072.11 1082.74L1074.29 1079.09L1076.43 1075.42L1078.53 1071.73L1080.58 1068.02L1082.59 1064.28L1084.55 1060.52L1086.46 1056.74L1088.34 1052.94L1090.16 1049.11L1091.94 1045.27L1093.68 1041.4L1095.37 1037.52L1097.01 1033.61L1098.61 1029.69L1100.16 1025.75L1101.66 1021.79L1103.12 1017.81L1104.53 1013.82L1105.89 1009.81L1107.21 1005.78L1108.48 1001.74L1109.7 997.68L1110.88 993.6L1112 989.51L1113.08 985.41L1114.11 981.29L1115.09 977.16L1116.03 973.01L1116.91 968.86L1117.75 964.69L1118.54 960.5L1119.27 956.31L1119.96 952.11L1120.6 947.89L1134.52 852.33L1134.52 852.33L1145.83 852.99L1143.8 969.73Z" id="afXgamqgv"></path><path d="M912.3 1134.55C917.57 1134.55 921.84 1138.82 921.84 1144.09C921.84 1146.57 921.84 1144.47 921.84 1146.95C921.84 1152.21 917.57 1156.48 912.3 1156.48C900.84 1156.48 875.99 1156.48 864.53 1156.48C859.26 1156.48 854.99 1152.21 854.99 1146.95C854.99 1144.47 854.99 1146.57 854.99 1144.09C854.99 1138.82 859.26 1134.55 864.53 1134.55C875.99 1134.55 900.84 1134.55 912.3 1134.55Z" id="gwImuNxy6"></path><path d="M609.34 989.28C605.72 992.69 600.67 994.13 595.8 993.15C592.62 992.51 594.79 992.95 592.6 992.51C584.5 990.88 577.49 985.87 573.33 978.74C571.83 976.17 574.52 980.77 573.18 978.47C568.35 970.21 565.69 960.85 565.45 951.28C565.1 936.99 564.51 913.55 564.18 900.48C563.84 886.77 565.43 873.08 568.92 859.82C570.41 854.14 571.5 850 573.46 842.54C575.29 835.56 580.39 829.91 587.14 827.35C589.08 826.62 585.62 827.93 587.93 827.06C593.62 824.9 599.94 825.16 605.44 827.76C607.5 828.73 604.27 827.2 606.12 828.08C612.38 831.04 617.65 835.74 621.3 841.61C622.86 844.12 621.93 842.63 623.49 845.14C627.15 851.03 629.13 857.82 629.21 864.75C629.5 890.68 630.29 960.24 630.59 986.77C630.63 990.26 626.97 992.57 623.83 991.04C621.68 989.99 620.02 989.19 617.36 987.89C614.76 986.63 611.66 987.1 609.56 989.08C608.36 990.2 610.08 988.59 609.34 989.28Z" id="b5W5lBHCp"></path><path d="M1164.14 991.25C1167.76 994.65 1172.81 996.1 1177.68 995.12C1180.86 994.47 1178.69 994.91 1180.88 994.47C1188.98 992.84 1195.99 987.83 1200.15 980.7C1201.65 978.13 1198.96 982.73 1200.3 980.44C1205.13 972.17 1207.79 962.82 1208.03 953.25C1208.38 938.95 1208.97 915.52 1209.3 902.44C1209.64 888.73 1208.05 875.05 1204.56 861.79C1203.07 856.11 1201.98 851.96 1200.02 844.51C1198.19 837.53 1193.09 831.87 1186.34 829.32C1184.4 828.58 1187.86 829.89 1185.55 829.02C1179.86 826.87 1173.54 827.12 1168.04 829.72C1165.98 830.69 1169.21 829.17 1167.36 830.04C1161.06 833.02 1155.58 837.47 1151.37 843.02C1149.57 845.38 1150.6 844.03 1148.81 846.39C1144.65 851.87 1142.4 858.57 1142.42 865.45C1142.5 891.63 1142.71 961.95 1142.79 988.73C1142.8 992.25 1146.48 994.55 1149.65 993.01C1151.81 991.96 1153.46 991.15 1156.12 989.85C1158.72 988.59 1161.82 989.06 1163.92 991.04C1165.12 992.17 1163.4 990.55 1164.14 991.25Z" id="e4Qq9S6vc"></path><path d="M688.21 842.96C688.69 849.33 689.22 864.38 689.79 888.1C690.06 899.38 692.8 910.48 697.81 920.59C699.28 923.57 692.75 910.38 693.39 911.66C700.93 926.9 714.19 938.55 730.28 944.07C733.04 945.01 722.06 941.25 726.28 942.7C738.06 946.74 750.44 948.69 762.89 948.48C770.37 948.36 773.73 948.3 781.14 948.17C793.73 947.96 806.09 944.81 817.25 938.99C819.9 937.6 811.18 942.16 813.9 940.74C824.81 935.04 834.24 926.87 841.43 916.89C843.11 914.56 837.18 922.79 838.86 920.46C846 910.56 849.84 898.66 849.84 886.46C849.84 873.37 849.84 855.24 849.84 842.74C849.84 830.29 840.67 819.73 828.33 817.98C816.87 816.36 813.96 815.95 804.99 814.68C782.46 811.5 759.59 811.6 737.09 814.98C730.3 816 730.1 816.03 719.86 817.56C709.24 819.16 699.81 825.21 693.93 834.2C693.17 835.37 691.26 838.29 688.21 842.96L608.39 842.8" id="aWQdUK99U"></path><path d="M1081.64 843.41C1081.16 849.79 1080.63 864.83 1080.06 888.55C1079.78 899.84 1077.05 910.93 1072.04 921.05C1070.56 924.02 1077.1 910.83 1076.46 912.12C1068.91 927.36 1055.65 939 1039.57 944.52C1036.81 945.47 1047.79 941.7 1043.57 943.15C1031.79 947.19 1019.4 949.15 1006.95 948.94C999.47 948.81 996.12 948.76 988.7 948.63C976.12 948.42 963.75 945.27 952.59 939.44C949.95 938.06 958.67 942.61 955.94 941.19C945.03 935.5 935.61 927.33 928.41 917.35C926.73 915.01 932.66 923.24 930.99 920.92C923.85 911.02 920.01 899.12 920.01 886.91C920.01 873.83 920.01 855.7 920.01 843.2C920.01 830.74 929.18 820.19 941.51 818.44C952.97 816.82 955.89 816.41 964.86 815.14C987.39 811.95 1010.26 812.05 1032.76 815.43C1039.54 816.45 1039.75 816.48 1049.98 818.02C1060.6 819.62 1070.03 825.67 1075.91 834.66C1076.68 835.82 1078.58 838.74 1081.64 843.41L1179.41 842.8" id="a216SVs00w"></path><path d="M920.01 838.19L845.85 838.19" id="cXICXO8K"></path><path d="M1415.16 2120.55C1428.23 2120.55 1438.82 2131.15 1438.82 2144.22C1438.82 2148.95 1438.82 2139.48 1438.82 2144.22C1438.82 2157.29 1428.23 2167.88 1415.16 2167.88C1200.39 2167.88 579.76 2167.88 365 2167.88C351.93 2167.88 341.33 2157.29 341.33 2144.22C341.33 2139.48 341.33 2148.95 341.33 2144.22C341.33 2131.15 351.93 2120.55 365 2120.55C579.76 2120.55 1200.39 2120.55 1415.16 2120.55Z" id="g1bsnT4oCi"></path><path d="M341.34 2120.47L1438.82 2120.63L1438.82 2142.35L341.33 2142.19L341.34 2120.47Z" id="g2iX47pgG"></path><path d="M1360.77 1548.42C1381.84 1548.42 1398.91 1565.5 1398.91 1586.56C1398.91 1697.84 1398.91 1993.51 1398.91 2104.78C1398.91 2125.85 1381.84 2142.93 1360.77 2142.93C1165.13 2142.93 616.35 2142.93 420.71 2142.93C399.65 2142.93 382.57 2125.85 382.57 2104.78C382.57 1993.51 382.57 1697.84 382.57 1586.56C382.57 1565.5 399.65 1548.42 420.71 1548.42C616.35 1548.42 1165.13 1548.42 1360.77 1548.42Z" id="d1IEHrSqjo"></path><path d="M1333.69 1573.37C1353.55 1573.37 1369.65 1589.46 1369.65 1609.32C1369.65 1714.2 1369.65 1992.91 1369.65 2097.79C1369.65 2117.65 1353.55 2133.75 1333.69 2133.75C1149.32 2133.75 632.16 2133.75 447.79 2133.75C427.94 2133.75 411.84 2117.65 411.84 2097.79C411.84 1992.91 411.84 1714.2 411.84 1609.32C411.84 1589.46 427.94 1573.37 447.79 1573.37C632.16 1573.37 1149.32 1573.37 1333.69 1573.37Z" id="c3874rekr"></path><path d="M441.11 1815.41L752.39 2107.33L441.11 2107.33L441.11 1815.41Z" id="aI8AS6bKp"></path><path d="M1340.38 1891.7L1029.09 1599.79L1340.38 1599.79L1340.38 1891.7Z" id="aSvsQ20Eu"></path></defs><g><g><g><use xlink:href="#a1EtNsCAdY" opacity="1" fill="#e3e0dc" fill-opacity="1"></use></g><g><g><use xlink:href="#f7aEAFpF" opacity="1" fill="#c0e36b" fill-opacity="1"></use></g><g><use xlink:href="#a1f6wZnKYF" opacity="1" fill="#c0e36b" fill-opacity="1"></use></g><g><use xlink:href="#b4gUSdimuD" opacity="1" fill="#c0e36b" fill-opacity="1"></use></g><g><use xlink:href="#e2QlLaaBzh" opacity="1" fill="#c0e36b" fill-opacity="1"></use></g><g><use xlink:href="#a6khcWcu1J" opacity="1" fill="#c0e36b" fill-opacity="1"></use></g><g><use xlink:href="#d1JdSrYFf" opacity="1" fill="#c0e36b" fill-opacity="1"></use></g><g><use xlink:href="#dxbTbM5o5" opacity="1" fill="#c0e36b" fill-opacity="1"></use></g><g><use xlink:href="#b1w0BP5goR" opacity="1" fill="#c0e36b" fill-opacity="1"></use></g><g><use xlink:href="#c3h6TN90Ag" opacity="1" fill="#c0e36b" fill-opacity="1"></use></g><g><use xlink:href="#d2g2MMIHI1" opacity="1" fill="#c0e36b" fill-opacity="1"></use></g><g><use xlink:href="#ajY6Y00na" opacity="1" fill="#c0e36b" fill-opacity="1"></use></g><g><use xlink:href="#caD0Uka0d" opacity="1" fill="#c0e36b" fill-opacity="1"></use></g><g><use xlink:href="#bEas5YiM8" opacity="1" fill="#c0e36b" fill-opacity="1"></use></g><g><use xlink:href="#aYMqr52dD" opacity="1" fill="#c0e36b" fill-opacity="1"></use></g><g><use xlink:href="#a511i28sX" opacity="1" fill="#c0e36b" fill-opacity="1"></use></g><g><use xlink:href="#a66UffyFLH" opacity="1" fill="#c0e36b" fill-opacity="1"></use></g><g><use xlink:href="#g3Uz9g8LQ" opacity="1" fill="#c0e36b" fill-opacity="1"></use></g><g><use xlink:href="#aTFZGwcRy" opacity="1" fill="#c0e36b" fill-opacity="1"></use></g><g><use xlink:href="#cnZ5qU55s" opacity="1" fill="#c0e36b" fill-opacity="1"></use></g><g><use xlink:href="#aszJIX1w9" opacity="1" fill="#c0e36b" fill-opacity="1"></use></g><g><use xlink:href="#cQbDEXp9J" opacity="1" fill="#c0e36b" fill-opacity="1"></use></g><g><use xlink:href="#aw0REwauj" opacity="1" fill="#c0e36b" fill-opacity="1"></use></g><g><use xlink:href="#cJaaZsoQs" opacity="1" fill="#c0e36b" fill-opacity="1"></use></g><g><use xlink:href="#bkl5XeocZ" opacity="1" fill="#c0e36b" fill-opacity="1"></use></g><g><use xlink:href="#bivRHUCRG" opacity="1" fill="#c0e36b" fill-opacity="1"></use></g><g><use xlink:href="#fpUYmY8aG" opacity="1" fill="#c0e36b" fill-opacity="1"></use></g><g><use xlink:href="#a1CPM69hc6" opacity="1" fill="#c0e36b" fill-opacity="1"></use></g><g><use xlink:href="#ccwcS1xwO" opacity="1" fill="#c0e36b" fill-opacity="1"></use></g><g><use xlink:href="#i167bnzkQM" opacity="1" fill="#c0e36b" fill-opacity="1"></use></g><g><use xlink:href="#a2vEH8PWAr" opacity="1" fill="#c0e36b" fill-opacity="1"></use></g><g><use xlink:href="#m5QMNx2tq" opacity="1" fill="#c0e36b" fill-opacity="1"></use></g><g><use xlink:href="#a6AcJGvWl" opacity="1" fill="#c0e36b" fill-opacity="1"></use></g><g><use xlink:href="#c1L3eUisSD" opacity="1" fill="#c0e36b" fill-opacity="1"></use></g><g><use xlink:href="#c4bFPeUk3i" opacity="1" fill="#c0e36b" fill-opacity="1"></use></g><g><use xlink:href="#b4WnhoWf2F" opacity="1" fill="#c0e36b" fill-opacity="1"></use></g><g><use xlink:href="#i13lTE5kp" opacity="1" fill="#c0e36b" fill-opacity="1"></use></g><g><use xlink:href="#a1vx4mkvud" opacity="1" fill="#c0e36b" fill-opacity="1"></use></g><g><use xlink:href="#h2Xtf89jfv" opacity="1" fill="#c0e36b" fill-opacity="1"></use></g><g><use xlink:href="#c9BXG7c4H" opacity="1" fill="#c0e36b" fill-opacity="1"></use></g><g><use xlink:href="#d1ftn6gpf" opacity="1" fill="#c0e36b" fill-opacity="1"></use></g></g><g><g><use xlink:href="#bc54Py0C2" opacity="1" fill="#f1c28c" fill-opacity="1"></use></g><g><use xlink:href="#c1rdwVAfID" opacity="1" fill="#f1c28c" fill-opacity="1"></use></g></g><g><g><use xlink:href="#d3FmDHJxS" opacity="1" fill="#7a3613" fill-opacity="1"></use></g><g><use xlink:href="#c8sE964we" opacity="1" fill="#161813" fill-opacity="1"></use></g></g><g><use xlink:href="#c7e6kIDaI" opacity="1" fill="#fed6a7" fill-opacity="1"></use></g><g><use xlink:href="#c6oLzZ7aCr" opacity="1" fill="#ffd7a7" fill-opacity="1"></use></g><g><use xlink:href="#c13WLFUNY" opacity="1" fill="#b07331" fill-opacity="1"></use></g><g><g><use xlink:href="#a4hVuqJfE" opacity="1" fill="#1b1209" fill-opacity="1"></use></g><g><use xlink:href="#g5n6gHJbL" opacity="1" fill="#1b1209" fill-opacity="1"></use></g></g><g><g><use xlink:href="#c2ctPpAT0X" opacity="1" fill="#1a1208" fill-opacity="1"></use></g><g><use xlink:href="#c4PmwZiPmG" opacity="1" fill="#1a1208" fill-opacity="1"></use></g><g><use xlink:href="#afXgamqgv" opacity="1" fill="#1a1208" fill-opacity="1"></use></g><g><use xlink:href="#gwImuNxy6" opacity="1" fill="#1a1208" fill-opacity="1"></use></g></g><g><g><use xlink:href="#b5W5lBHCp" opacity="1" fill="#fed7a6" fill-opacity="1"></use></g><g><use xlink:href="#e4Qq9S6vc" opacity="1" fill="#fed7a6" fill-opacity="1"></use></g></g><g><g><g><use xlink:href="#aWQdUK99U" opacity="1" fill-opacity="0" stroke="#8c8e9f" stroke-width="3" stroke-opacity="1"></use></g></g><g><g><use xlink:href="#a216SVs00w" opacity="1" fill-opacity="0" stroke="#8c8e9f" stroke-width="3" stroke-opacity="1"></use></g></g><g><g><use xlink:href="#cXICXO8K" opacity="1" fill-opacity="0" stroke="#8c8e9f" stroke-width="3" stroke-opacity="1"></use></g></g></g><g><g><use xlink:href="#g1bsnT4oCi" opacity="1" fill="#303cb0" fill-opacity="1"></use></g><g><use xlink:href="#g2iX47pgG" opacity="1" fill="#1e2cb0" fill-opacity="1"></use></g><g><use xlink:href="#d1IEHrSqjo" opacity="1" fill="#313db0" fill-opacity="1"></use></g><g><use xlink:href="#c3874rekr" opacity="1" fill="#1e2cb0" fill-opacity="1"></use></g><g><use xlink:href="#aI8AS6bKp" opacity="1" fill="#313db0" fill-opacity="1"></use></g><g><use xlink:href="#aSvsQ20Eu" opacity="1" fill="#313db0" fill-opacity="1"></use></g></g></g></g></svg>